<?xml version="1.0" encoding="utf-8"?>
<!-- Generator: Adobe Illustrator 23.0.6, SVG Export Plug-In . SVG Version: 6.00 Build 0)  -->
<svg version="1.1" id="Layer_1" xmlns="http://www.w3.org/2000/svg" xmlns:xlink="http://www.w3.org/1999/xlink" x="0px" y="0px"
	 viewBox="0 0 37.8 35.2" style="enable-background:new 0 0 37.8 35.2;" xml:space="preserve">
<style type="text/css">
	.st0{fill:#CBDCEF;}
	.st1{fill:#6772E5;}
</style>
<g>
	<path class="st0" d="M12.3,9.8l13.2,0.5c0.8,0,1.2,0.1,1.3,1l0,1.1l1.2,0.1l-0.5-2.9c0,0-3.2-0.4-3.3-0.4c-0.2,0-5.5,0-5.6,0
		S14.8,9,14.8,9L12.3,9.8z"/>
	<path class="st0" d="M12,13l0.2,11c0,0.4,0.4,0.8,0.8,0.8l13.9,0.6l-0.1,0.6l-14.2,0l-1.2-0.5l-0.5-1.2l0-12l1.1-0.2L12,13z"/>
	<g>
		<g>
			<path class="st1" d="M19,35.2c-4.7,0-9.1-1.8-12.5-5.2c0,0,0,0,0,0c-3.3-3.3-5.2-7.8-5.2-12.4l0-0.6c0-0.3,0.2-0.5,0.5-0.5
				c0.3,0,0.5,0.2,0.5,0.5l0,0.6c0,4.4,1.7,8.6,4.9,11.8c3.1,3.1,7.3,4.9,11.8,4.9c0,0,0,0,0,0c4.4,0,8.6-1.7,11.7-4.9
				c0.2-0.2,0.5-0.2,0.7,0s0.2,0.5,0,0.7C28.2,33.4,23.7,35.2,19,35.2C19,35.2,19,35.2,19,35.2z"/>
		</g>
		<g>
			<path class="st1" d="M36.1,18.7c-0.3,0-0.5-0.2-0.5-0.5l0-0.6c0-4.4-1.7-8.6-4.9-11.8c-6.5-6.5-17-6.5-23.5,0
				c-0.2,0.2-0.5,0.2-0.7,0s-0.2-0.5,0-0.7c6.9-6.9,18-6.9,24.9,0c3.3,3.3,5.2,7.8,5.1,12.5l0,0.6C36.6,18.4,36.4,18.7,36.1,18.7
				C36.1,18.7,36.1,18.7,36.1,18.7z"/>
		</g>
		<g>
			<path class="st1" d="M35.9,19.1c-0.1,0-0.3-0.1-0.4-0.1l-1.4-1.4c-0.2-0.2-0.2-0.5,0-0.7s0.5-0.2,0.7,0l1,1l1-1
				c0.2-0.2,0.5-0.2,0.7,0s0.2,0.5,0,0.7L36.2,19C36.1,19.1,36,19.1,35.9,19.1z"/>
		</g>
		<g>
			<path class="st1" d="M3.3,18.4c-0.1,0-0.3,0-0.4-0.1l-1-1l-1,1c-0.2,0.2-0.5,0.2-0.7,0s-0.2-0.5,0-0.7l1.4-1.4
				C1.7,16,2,16,2.2,16.2l1.4,1.4c0.2,0.2,0.2,0.5,0,0.7C3.5,18.4,3.4,18.4,3.3,18.4z"/>
		</g>
	</g>
	<g id="_198501824_3_">
		<g id="_196866848_3_">
			<path class="st1" d="M26.2,26.6H12.6c-0.6,0-1.1-0.2-1.5-0.6c-0.4-0.4-0.6-1-0.6-1.5V10.9c0-0.6,0.2-1.1,0.6-1.5s1-0.6,1.5-0.6
				h13.5c0.6,0,1.1,0.2,1.5,0.6s0.6,1,0.6,1.5v13.5c0,0.6-0.2,1.1-0.6,1.5C27.3,26.4,26.8,26.6,26.2,26.6z M12.6,9.7
				c-0.3,0-0.6,0.1-0.8,0.3c-0.2,0.2-0.3,0.5-0.3,0.8v13.5c0,0.3,0.1,0.6,0.3,0.8c0.2,0.2,0.5,0.3,0.8,0.3h13.5
				c0.3,0,0.6-0.1,0.8-0.3c0.2-0.2,0.3-0.5,0.3-0.8V10.9c0-0.3-0.1-0.6-0.3-0.8c-0.2-0.2-0.5-0.3-0.8-0.3H12.6z"/>
		</g>
		<g id="_196865792_2_">
			<path class="st1" d="M27.4,13H11.4c-0.3,0-0.5-0.2-0.5-0.5s0.2-0.5,0.5-0.5h16.1c0.3,0,0.5,0.2,0.5,0.5S27.7,13,27.4,13z"/>
		</g>
		<g id="_196864544_2_">
			<path class="st1" d="M20.3,15.4h-1.8c-0.3,0-0.5-0.2-0.5-0.5s0.2-0.5,0.5-0.5h1.8c0.3,0,0.5,0.2,0.5,0.5S20.6,15.4,20.3,15.4z"/>
		</g>
		<g id="_196860320_3_">
			<path class="st1" d="M25.7,15.4h-1.8c-0.3,0-0.5-0.2-0.5-0.5s0.2-0.5,0.5-0.5h1.8c0.3,0,0.5,0.2,0.5,0.5S26,15.4,25.7,15.4z"/>
		</g>
		<g id="_196866800_3_">
			<path class="st1" d="M14.9,17.9h-1.8c-0.3,0-0.5-0.2-0.5-0.5s0.2-0.5,0.5-0.5h1.8c0.3,0,0.5,0.2,0.5,0.5S15.2,17.9,14.9,17.9z"/>
		</g>
		<g id="_196866080_3_">
			<path class="st1" d="M20.3,17.9h-1.8c-0.3,0-0.5-0.2-0.5-0.5s0.2-0.5,0.5-0.5h1.8c0.3,0,0.5,0.2,0.5,0.5S20.6,17.9,20.3,17.9z"/>
		</g>
		<g id="_196861688_3_">
			<path class="st1" d="M25.7,17.9h-1.8c-0.3,0-0.5-0.2-0.5-0.5s0.2-0.5,0.5-0.5h1.8c0.3,0,0.5,0.2,0.5,0.5S26,17.9,25.7,17.9z"/>
		</g>
		<g id="_196859504_3_">
			<path class="st1" d="M14.9,20.4h-1.8c-0.3,0-0.5-0.2-0.5-0.5s0.2-0.5,0.5-0.5h1.8c0.3,0,0.5,0.2,0.5,0.5S15.2,20.4,14.9,20.4z"/>
		</g>
		<g id="_196866992_3_">
			<path class="st1" d="M20.3,20.4h-1.8c-0.3,0-0.5-0.2-0.5-0.5s0.2-0.5,0.5-0.5h1.8c0.3,0,0.5,0.2,0.5,0.5S20.6,20.4,20.3,20.4z"/>
		</g>
		<g id="_198488840_3_">
			<path class="st1" d="M25.7,20.4h-1.8c-0.3,0-0.5-0.2-0.5-0.5s0.2-0.5,0.5-0.5h1.8c0.3,0,0.5,0.2,0.5,0.5S26,20.4,25.7,20.4z"/>
		</g>
		<g id="_198498632_3_">
			<path class="st1" d="M14.9,22.9h-1.8c-0.3,0-0.5-0.2-0.5-0.5s0.2-0.5,0.5-0.5h1.8c0.3,0,0.5,0.2,0.5,0.5S15.2,22.9,14.9,22.9z"/>
		</g>
		<g id="_198490760_3_">
			<path class="st1" d="M20.3,22.9h-1.8c-0.3,0-0.5-0.2-0.5-0.5s0.2-0.5,0.5-0.5h1.8c0.3,0,0.5,0.2,0.5,0.5S20.6,22.9,20.3,22.9z"/>
		</g>
		<g id="_198489464_2_">
			<path class="st1" d="M15.4,10.9c-0.3,0-0.5-0.2-0.5-0.5V8.6c0-0.3,0.2-0.5,0.5-0.5s0.5,0.2,0.5,0.5v1.8
				C15.9,10.7,15.7,10.9,15.4,10.9z"/>
		</g>
		<g id="_198502184_2_">
			<path class="st1" d="M19.7,10.9c-0.3,0-0.5-0.2-0.5-0.5V8.6c0-0.3,0.2-0.5,0.5-0.5s0.5,0.2,0.5,0.5v1.8
				C20.2,10.7,20,10.9,19.7,10.9z"/>
		</g>
		<g id="_198490856_2_">
			<path class="st1" d="M24,10.9c-0.3,0-0.5-0.2-0.5-0.5V8.6c0-0.3,0.2-0.5,0.5-0.5s0.5,0.2,0.5,0.5v1.8
				C24.5,10.7,24.2,10.9,24,10.9z"/>
		</g>
	</g>
</g>
</svg>
