<?xml version="1.0" encoding="utf-8"?>
<!-- Generator: Adobe Illustrator 23.0.6, SVG Export Plug-In . SVG Version: 6.00 Build 0)  -->
<svg version="1.1" id="Layer_1" xmlns="http://www.w3.org/2000/svg" xmlns:xlink="http://www.w3.org/1999/xlink" x="0px" y="0px"
	 viewBox="0 0 30.8 32.4" style="enable-background:new 0 0 30.8 32.4;" xml:space="preserve">
<style type="text/css">
	.st0{fill:#CBDCEF;}
	.st1{fill:#6772E5;}
</style>
<g>
	<path class="st0" d="M3.1,21.7c0,0-4.9,8.3,4.5,9.4L7,31.8c0,0-2.5-0.4-2.5-0.4c-0.1,0-2.8-1.9-2.8-2s-1.2-3.8-1.2-3.8l1.4-3.5
		l1.3-0.6L3.1,21.7z"/>
	<g>
		<path class="st1" d="M6.3,32.4C2.8,32.4,0,29.5,0,26c0-3.5,2.8-6.3,6.3-6.3s6.3,2.8,6.3,6.3C12.7,29.5,9.8,32.4,6.3,32.4z
			 M6.3,20.7C3.4,20.7,1,23.1,1,26s2.4,5.3,5.3,5.3s5.3-2.4,5.3-5.3S9.3,20.7,6.3,20.7z"/>
	</g>
	<g>
		<path class="st1" d="M21.9,26.5h-9.7c-0.3,0-0.5-0.2-0.5-0.5s0.2-0.5,0.5-0.5h9.2V3.2c0-0.3,0.2-0.5,0.5-0.5h8
			c0.3,0,0.5,0.2,0.5,0.5s-0.2,0.5-0.5,0.5h-7.5V26C22.4,26.3,22.2,26.5,21.9,26.5z"/>
	</g>
	<g>
		<path class="st1" d="M27.5,6.6c-0.1,0-0.3,0-0.4-0.1c-0.2-0.2-0.2-0.5,0-0.7l2.4-2.4l-2.4-2.4c-0.2-0.2-0.2-0.5,0-0.7
			s0.5-0.2,0.7,0l2.8,2.8c0.1,0.1,0.1,0.2,0.1,0.4s-0.1,0.3-0.1,0.4l-2.8,2.8C27.8,6.5,27.6,6.6,27.5,6.6z"/>
	</g>
</g>
</svg>
