<?xml version="1.0" encoding="utf-8"?>
<!-- Generator: Adobe Illustrator 23.0.6, SVG Export Plug-In . SVG Version: 6.00 Build 0)  -->
<svg version="1.1" id="Layer_1" xmlns="http://www.w3.org/2000/svg" xmlns:xlink="http://www.w3.org/1999/xlink" x="0px" y="0px"
	 viewBox="0 0 32.8 33.6" style="enable-background:new 0 0 32.8 33.6;" xml:space="preserve">
<style type="text/css">
	.st0{fill:#CBDCEF;}
	.st1{fill:#6772E5;}
	.st2{fill:#D2D8FC;}
</style>
<g id="Layer_1-2_2_">
	<path class="st0" d="M30.8,21.5c0,0,0.9,8.2-5.6,11.2l1.8,0.5l3-1.8l2-2.7l0.3-3.5l-0.5-3L30.8,21.5z"/>
	<path class="st0" d="M2.4,2.2l18.7,0.7c1.1,0,1.7,0.2,1.9,1.4L23,5.8L24.7,6L24,1.9c0,0-4.5-0.6-4.8-0.6s-7.7,0-8,0S6,1,6,1
		L2.4,2.2z"/>
	<path class="st0" d="M2,6.8l0.2,15.6c0,0.6,0.5,1.1,1.1,1.2l11.1,1.1L14.4,25L2.9,25.4l-1.7-0.7L0.5,23V6l1.6-0.3L2,6.8z"/>
	<g id="_198501824_2_">
		<g id="_196866848_2_">
			<path class="st1" d="M14.4,25.9H2.9C1.3,25.9,0,24.6,0,23L0,3.8c0-0.8,0.3-1.5,0.8-2c0.5-0.5,1.3-0.8,2-0.8c0,0,0,0,0,0h19.2
				c1.6,0,2.9,1.3,2.9,2.9v11.2c0,0.3-0.2,0.5-0.5,0.5S24,15.3,24,15.1V3.8c0-1-0.8-1.9-1.9-1.9H2.9c0,0,0,0,0,0
				c-0.5,0-1,0.2-1.3,0.6C1.2,2.8,1,3.3,1,3.8V23c0,1.1,0.8,1.9,1.9,1.9h11.5c0.3,0,0.5,0.2,0.5,0.5S14.7,25.9,14.4,25.9z"/>
		</g>
		<g id="_196865792_1_">
			<path class="st1" d="M23.9,6.6H1.1c-0.3,0-0.5-0.2-0.5-0.5s0.2-0.5,0.5-0.5h22.9c0.3,0,0.5,0.2,0.5,0.5S24.2,6.6,23.9,6.6z"/>
		</g>
		<g id="_196864544_1_">
			<path class="st2" d="M13.8,10h-2.6c-0.3,0-0.5-0.2-0.5-0.5S10.9,9,11.2,9h2.6c0.3,0,0.5,0.2,0.5,0.5S14.1,10,13.8,10z"/>
		</g>
		<g id="_196860320_1_">
			<path class="st2" d="M21.5,10h-2.6c-0.3,0-0.5-0.2-0.5-0.5S18.6,9,18.9,9h2.6C21.8,9,22,9.2,22,9.5S21.8,10,21.5,10z"/>
		</g>
		<g id="_196866800_1_">
			<path class="st2" d="M6.1,13.5H3.5C3.2,13.5,3,13.3,3,13s0.2-0.5,0.5-0.5h2.6c0.3,0,0.5,0.2,0.5,0.5S6.4,13.5,6.1,13.5z"/>
		</g>
		<g id="_196866080_1_">
			<path class="st2" d="M13.8,13.5h-2.6c-0.3,0-0.5-0.2-0.5-0.5s0.2-0.5,0.5-0.5h2.6c0.3,0,0.5,0.2,0.5,0.5S14.1,13.5,13.8,13.5z"/>
		</g>
		<g id="_196861688_1_">
			<path class="st2" d="M21.5,13.5h-2.6c-0.3,0-0.5-0.2-0.5-0.5s0.2-0.5,0.5-0.5h2.6c0.3,0,0.5,0.2,0.5,0.5S21.8,13.5,21.5,13.5z"/>
		</g>
		<g id="_196859504_1_">
			<path class="st2" d="M6.1,17.1H3.5c-0.3,0-0.5-0.2-0.5-0.5s0.2-0.5,0.5-0.5h2.6c0.3,0,0.5,0.2,0.5,0.5S6.4,17.1,6.1,17.1z"/>
		</g>
		<g id="_196866992_1_">
			<path class="st1" d="M13.8,17.6h-2.6c-0.6,0-1-0.4-1-1s0.4-1,1-1h2.6c0.6,0,1,0.4,1,1S14.4,17.6,13.8,17.6z"/>
		</g>
		<g id="_198488840_1_">
			<path class="st2" d="M21.5,17.1h-2.6c-0.3,0-0.5-0.2-0.5-0.5s0.2-0.5,0.5-0.5h2.6c0.3,0,0.5,0.2,0.5,0.5S21.8,17.1,21.5,17.1z"/>
		</g>
		<g id="_198498632_1_">
			<path class="st2" d="M6.1,20.6H3.5c-0.3,0-0.5-0.2-0.5-0.5s0.2-0.5,0.5-0.5h2.6c0.3,0,0.5,0.2,0.5,0.5S6.4,20.6,6.1,20.6z"/>
		</g>
		<g id="_198490760_1_">
			<path class="st2" d="M13.8,20.6h-2.6c-0.3,0-0.5-0.2-0.5-0.5s0.2-0.5,0.5-0.5h2.6c0.3,0,0.5,0.2,0.5,0.5S14.1,20.6,13.8,20.6z"/>
		</g>
		<g id="_198489464_1_">
			<path class="st1" d="M6.8,3.6c-0.3,0-0.5-0.2-0.5-0.5V0.5C6.3,0.2,6.5,0,6.8,0s0.5,0.2,0.5,0.5v2.6C7.3,3.4,7.1,3.6,6.8,3.6z"/>
		</g>
		<g id="_198502184_1_">
			<path class="st1" d="M12.9,3.6c-0.3,0-0.5-0.2-0.5-0.5V0.5c0-0.3,0.2-0.5,0.5-0.5s0.5,0.2,0.5,0.5v2.6
				C13.4,3.4,13.2,3.6,12.9,3.6z"/>
		</g>
		<g id="_198490856_1_">
			<path class="st1" d="M19,3.6c-0.3,0-0.5-0.2-0.5-0.5V0.5C18.5,0.2,18.7,0,19,0s0.5,0.2,0.5,0.5v2.6C19.5,3.4,19.3,3.6,19,3.6z"/>
		</g>
	</g>
	<g>
		<path class="st1" d="M24.7,33.6c-4.5,0-8.1-3.6-8.1-8.1s3.6-8.1,8.1-8.1s8.1,3.6,8.1,8.1S29.2,33.6,24.7,33.6z M24.7,18.3
			c-3.9,0-7.1,3.2-7.1,7.1s3.2,7.1,7.1,7.1s7.1-3.2,7.1-7.1S28.6,18.3,24.7,18.3z"/>
	</g>
	<path class="st1" d="M22.8,27.7h1.4v-4.2H23v-0.7c0.5-0.1,1-0.3,1.5-0.5h0.9v5.4h1.2v0.9h-3.8V27.7z"/>
</g>
</svg>
